# xmcd
#
# Track frame offsets: 
#        150
#        13962
#        27391
#        51233
#        73315
#        89451
#        112925
#        131180
#        141319
#        161359
#        174356
#
# Disc length: 2526 seconds
#
# Revision: 0
# Processed by: cddbd v1.5.2PL0 Copyright (c) Steve Scherf et al.
# Submitted via: ExactAudioCopy v1.0b2
#
DISCID=9d09dc0b
DTITLE=Cynthia Jones - Cynthia Jones
DYEAR=2008
DGENRE=Blues
TTITLE0=Baby, Baby All The Time
TTITLE1=Caught A Touch Of Your Love
TTITLE2=If I Had You
TTITLE3=Slave To Love
TTITLE4=Up From The Skies
TTITLE5=In A Sentimental Mood
TTITLE6=I Know You Know
TTITLE7=You'd Be So Nice To Come Home To
TTITLE8=When Did You Leave Heaven
TTITLE9=Snatch and Grab It
TTITLE10=Sugar In My Bowl
EXTD=
EXTT0=
EXTT1=
EXTT2=
EXTT3=
EXTT4=
EXTT5=
EXTT6=
EXTT7=
EXTT8=
EXTT9=
EXTT10=
PLAYORDER=
